<svg xmlns="http://www.w3.org/2000/svg" viewBox="0 0 900 550" fill="none">
  <defs>
    <linearGradient id="bg" x1="0" y1="0" x2="900" y2="550">
      <stop offset="0%" stop-color="#0a0a1a"/>
      <stop offset="100%" stop-color="#12122a"/>
    </linearGradient>
  </defs>
  <rect width="900" height="550" rx="12" fill="url(#bg)" stroke="#333" stroke-width="1"/>

  <!-- Window chrome -->
  <rect width="900" height="35" rx="12" fill="#1a1a2e"/>
  <rect x="0" y="12" width="900" height="23" fill="#1a1a2e"/>
  <circle cx="20" cy="17" r="6" fill="#ff5f57"/>
  <circle cx="40" cy="17" r="6" fill="#febc2e"/>
  <circle cx="60" cy="17" r="6" fill="#28c840"/>
  <text x="450" y="22" text-anchor="middle" fill="#666" font-family="system-ui" font-size="12">Blog Publisher — localhost:4444</text>

  <!-- Title -->
  <text x="40" y="70" fill="#0ff" font-family="system-ui" font-size="22" font-weight="bold">📝 Blog Publisher</text>

  <!-- Site selector -->
  <rect x="40" y="85" width="820" height="60" rx="8" fill="#1a1a2e" stroke="#333" stroke-width="1"/>
  <text x="55" y="105" fill="#0ff" font-family="system-ui" font-size="11" text-transform="uppercase">PUBLISH TO</text>
  <rect x="55" y="112" width="790" height="28" rx="6" fill="#12121a" stroke="#333" stroke-width="1"/>
  <text x="70" y="131" fill="#fff" font-family="system-ui" font-size="13">Personal Website (personal-website) ▾</text>

  <!-- Title field -->
  <text x="40" y="175" fill="#888" font-family="system-ui" font-size="11">TITLE</text>
  <rect x="40" y="182" width="820" height="35" rx="6" fill="#12121a" stroke="#333" stroke-width="1"/>
  <text x="55" y="204" fill="#fff" font-family="system-ui" font-size="13">AI-Assisted Development: ODS Spark Replatform with Agents</text>

  <!-- Excerpt field -->
  <text x="40" y="240" fill="#888" font-family="system-ui" font-size="11">EXCERPT</text>
  <rect x="40" y="247" width="820" height="35" rx="6" fill="#12121a" stroke="#333" stroke-width="1"/>
  <text x="55" y="269" fill="#999" font-family="system-ui" font-size="13">How we used AI agents to accelerate Spark migration...</text>

  <!-- Tags and Date row -->
  <text x="40" y="305" fill="#888" font-family="system-ui" font-size="11">TAGS</text>
  <rect x="40" y="312" width="580" height="35" rx="6" fill="#12121a" stroke="#333" stroke-width="1"/>
  <text x="55" y="334" fill="#999" font-family="system-ui" font-size="13">AI, Spark, Migration, Agents</text>
  <text x="640" y="305" fill="#888" font-family="system-ui" font-size="11">DATE</text>
  <rect x="640" y="312" width="220" height="35" rx="6" fill="#12121a" stroke="#333" stroke-width="1"/>
  <text x="655" y="334" fill="#fff" font-family="system-ui" font-size="13">2025-05-14</text>

  <!-- Editor toolbar -->
  <text x="40" y="375" fill="#888" font-family="system-ui" font-size="11">CONTENT</text>
  <rect x="40" y="382" width="820" height="30" rx="6" fill="#1a1a2e" stroke="#333" stroke-width="1"/>
  <text x="55" y="401" fill="#888" font-family="system-ui" font-size="12" font-weight="bold">B</text>
  <text x="80" y="401" fill="#888" font-family="system-ui" font-size="12" font-style="italic">I</text>
  <text x="100" y="401" fill="#888" font-family="system-ui" font-size="12" text-decoration="underline">U</text>
  <text x="125" y="401" fill="#888" font-family="system-ui" font-size="12">H1</text>
  <text x="155" y="401" fill="#888" font-family="system-ui" font-size="12">H2</text>
  <text x="185" y="401" fill="#888" font-family="system-ui" font-size="12">❝</text>
  <text x="210" y="401" fill="#888" font-family="system-ui" font-size="12">⟨/⟩</text>
  <text x="245" y="401" fill="#888" font-family="system-ui" font-size="12">• ─</text>
  <text x="280" y="401" fill="#888" font-family="system-ui" font-size="12">1. ─</text>
  <text x="315" y="401" fill="#888" font-family="system-ui" font-size="12">🔗</text>
  <text x="340" y="401" fill="#888" font-family="system-ui" font-size="12">🖼</text>

  <!-- Editor content area -->
  <rect x="40" y="412" width="820" height="90" fill="#12121a" stroke="#333" stroke-width="1"/>
  <text x="55" y="438" fill="#e0e0e0" font-family="system-ui" font-size="13">Replatforming BT Panorama's Spark applications from legacy DSE</text>
  <text x="55" y="458" fill="#e0e0e0" font-family="system-ui" font-size="13">Spark 2.4 to Databricks Cloud Runtime was a massive undertaking...</text>
  <text x="55" y="485" fill="#0ff" font-family="monospace" font-size="11">|</text>

  <!-- Buttons -->
  <rect x="40" y="515" width="110" height="30" rx="6" fill="#333"/>
  <text x="95" y="534" text-anchor="middle" fill="#fff" font-family="system-ui" font-size="12">📂 Load</text>
  <rect x="160" y="515" width="130" height="30" rx="6" fill="#333"/>
  <text x="225" y="534" text-anchor="middle" fill="#fff" font-family="system-ui" font-size="12">💾 Save Draft</text>
  <rect x="740" y="515" width="120" height="30" rx="6" fill="#0ff"/>
  <text x="800" y="534" text-anchor="middle" fill="#0a0a0f" font-family="system-ui" font-size="12" font-weight="bold">🚀 Publish</text>
</svg>
